<svg id="OPTION_3" data-name="OPTION 3" xmlns="http://www.w3.org/2000/svg" viewBox="0 0 484.72 260.79"><defs><style>.cls-1{fill:#616969;}.cls-2{fill:#2cccd3;}.cls-3{fill:#008c95;}.cls-4{fill:#006269;}</style></defs><path class="cls-1" d="M168,123.68c-3.48,0-7.46,0-9.9-.87a10.57,10.57,0,0,1-7.47-9.81c-.16-1.89-.16-3.37-.16-5.36V88.72c0-6.25,4-10.67,9.11-11.71,1.82-.44,4.52-.44,8.31-.44,4,0,7.56.08,10,.86A10.62,10.62,0,0,1,185.35,88V92.9c0,5.82-3.46,9.74-8.29,10.39-2.14.29-10,1-14.91,1.52a3.53,3.53,0,0,0-1.79.46,1.73,1.73,0,0,0-.69,1.33v2.32c0,2,.08,5,2.94,5.82a20.23,20.23,0,0,0,4.95.37h12.33a4.2,4.2,0,0,1,1.88.45,4.41,4.41,0,0,1,1.22,1.68l1.45,4.67s.25.84-.18,1.26a3.08,3.08,0,0,1-2,.51Zm-8.34-26.75s7.22-.71,12.37-1.32c3.34-.4,4.2-1.9,4.2-4.86v-1a4.17,4.17,0,0,0-2.86-4.16,17.55,17.55,0,0,0-5.2-.45,33.65,33.65,0,0,0-4.51.18,4.17,4.17,0,0,0-4,4.51Z"/><path class="cls-1" d="M377.88,123.68c-3.48,0-7.46,0-9.9-.87a10.57,10.57,0,0,1-7.47-9.81c-.16-1.89-.16-3.37-.16-5.36V88.72c0-6.25,4-10.67,9.11-11.71,1.82-.44,4.52-.44,8.31-.44,4,0,7.56.08,10,.86A10.62,10.62,0,0,1,395.22,88V92.9c0,5.82-3.46,9.74-8.29,10.39-2.14.29-10,1-14.91,1.52a3.53,3.53,0,0,0-1.79.46,1.76,1.76,0,0,0-.69,1.33v2.32c0,2,.08,5,2.94,5.82a20.23,20.23,0,0,0,4.95.37h12.33a4.2,4.2,0,0,1,1.88.45,4.41,4.41,0,0,1,1.22,1.68l1.45,4.67s.25.84-.18,1.26a3.08,3.08,0,0,1-2,.51Zm-8.34-26.75s7.22-.71,12.37-1.32c3.34-.4,4.2-1.9,4.2-4.86v-1a4.18,4.18,0,0,0-2.85-4.16,17.65,17.65,0,0,0-5.21-.45,33.65,33.65,0,0,0-4.51.18,4.18,4.18,0,0,0-4,4.51Z"/><path class="cls-1" d="M215.89,114.83a4.07,4.07,0,0,0,3-3.72c.09-.88.09-1.91.09-3V76.65h9.2v30.47c0,2,0,4.07-.17,6a11,11,0,0,1-7.64,9.79c-2.43.86-5.82.86-9.62.86-4,0-7.29,0-9.74-.86a10.9,10.9,0,0,1-7.6-9.79,59.54,59.54,0,0,1-.2-6V76.65h9.21v31.5c0,1,0,2.08.08,3a4.1,4.1,0,0,0,3,3.72,18.9,18.9,0,0,0,5.19.36A19.71,19.71,0,0,0,215.89,114.83Z"/><path class="cls-1" d="M265.59,115.11v8.57H254.75c-3.57,0-7.8,0-10.23-.87-5.64-2.07-7.2-6.59-7.2-13.89V89c0-6.61,3.47-10.84,8.85-11.88a55.1,55.1,0,0,1,8.86-.45h10.4v8.58H255.17a36.5,36.5,0,0,0-4.75.19c-2.51.28-3.91,2.08-3.91,4.69V108.5c0,2.78.36,5.47,3,6.24a24.09,24.09,0,0,0,5.39.37Z"/><path class="cls-1" d="M272.93,62.77h9.19v45.82c0,.8,0,1.91.07,2.6.27,1.93,1.05,3.11,2.69,3.64a20.7,20.7,0,0,0,4.95.36v8.58c-4,0-6.59,0-9.11-.86a10.71,10.71,0,0,1-7.62-9.79c-.17-1.93-.17-3.41-.17-5.4Z"/><path class="cls-1" d="M307.81,71.55h-9.19V62.77h9.19Zm0,52.13h-9.19v-47h9.19Z"/><path class="cls-1" d="M342.79,62.77H352v48.6c0,7.63-3.21,10.67-7.73,11.8-2.45.6-5.9.6-9.89.6a48.41,48.41,0,0,1-8.85-.43c-5.13-1-8.35-5.38-8.5-12-.1-4.17-.1-7.82-.1-11.11,0-3.82,0-7,.1-10.41.15-8.24,4.07-13.2,14.29-13.2h11.48Zm-12.93,52.15a27.69,27.69,0,0,0,4.78.27,23.92,23.92,0,0,0,5.21-.36c2.86-.78,2.94-3.81,2.94-6.07V90.37c0-2.87-1.4-4.67-3.91-5a36.74,36.74,0,0,0-4.78-.19c-2.6,0-3.73,0-4.85.38a4.09,4.09,0,0,0-2.95,3.8c-.17,3.82-.17,7.29-.17,10.85,0,2.95,0,5.73.09,9.71C326.3,112.77,327.35,114.49,329.86,114.92Z"/><path class="cls-1" d="M410.3,122.91a10.94,10.94,0,0,1-7.64-9.79c-.17-1.93-.17-6.62-.17-12.94s0-11,.17-12.93a11,11,0,0,1,7.64-9.82c2.42-.86,5.63-.86,9.71-.86s7.38,0,9.8.86a11,11,0,0,1,7.65,9.82c.17,1.91.17,6.51.17,12.93s0,11-.17,12.94a11,11,0,0,1-7.65,9.79c-2.42.86-5.72.86-9.8.86S412.72,123.77,410.3,122.91Zm15.11-8.08a4.1,4.1,0,0,0,2.94-3.72c.07-.88.17-5.82.17-10.93s-.1-10.07-.17-10.94a4.13,4.13,0,0,0-2.94-3.74,21.7,21.7,0,0,0-5.4-.34,20.79,20.79,0,0,0-5.29.34,4.14,4.14,0,0,0-3,3.74c-.08.87-.18,5.9-.18,10.94s.1,10,.18,10.93a4.1,4.1,0,0,0,3,3.72,19.66,19.66,0,0,0,5.29.36A20.52,20.52,0,0,0,425.41,114.83Z"/><path class="cls-1" d="M458.56,85.5a4.11,4.11,0,0,0-3,3.74c-.09.87-.09,1.91-.09,3v31.48h-9.2V93.23c0-2,0-4.07.18-6a11,11,0,0,1,7.62-9.82c2.44-.86,5.74-.86,9.73-.86,3.8,0,7.21,0,9.62.86a11,11,0,0,1,7.66,9.82c.16,1.91.16,4,.16,6v30.45h-9.2V92.2c0-1,0-2.09-.09-3A4.13,4.13,0,0,0,469,85.5a20.79,20.79,0,0,0-5.29-.34A19.82,19.82,0,0,0,458.56,85.5Z"/><polygon class="cls-2" points="33.48 119.85 115.61 123.6 115.61 72.43 33.48 119.85"/><polygon class="cls-2" points="3.44 188.36 33.48 189.73 115.61 142.31 85.57 140.94 3.44 188.36"/><polygon class="cls-3" points="3.44 118.48 33.48 119.85 115.61 72.43 85.58 71.06 3.44 118.48"/><polygon class="cls-3" points="3.44 67.3 115.61 53.71 115.61 2.54 3.44 67.3"/><polygon class="cls-3" points="3.44 258.25 115.61 193.49 3.44 207.08 3.44 258.25"/><polygon class="cls-3" points="3.44 137.19 3.44 188.36 85.57 140.94 3.44 137.19"/><polygon class="cls-4" points="3.44 67.3 3.44 118.48 115.61 53.71 3.44 67.3"/><polygon class="cls-4" points="115.61 193.49 115.61 142.31 3.44 207.08 115.61 193.49"/><polygon class="cls-4" points="3.44 137.19 3.44 137.19 85.58 140.94 115.61 123.6 115.61 123.59 33.49 119.84 3.44 137.19"/><path class="cls-3" d="M170.78,142.3v21.15c0,5-3,8.82-10.2,8.82s-10.2-3.81-10.2-8.82V142.3H153v21.15c0,4.12,2.62,6.48,7.59,6.48s7.58-2.36,7.58-6.48V142.3Z"/><path class="cls-3" d="M181,144.87v27h-2.48V142.3h3.82l14,27v-27h2.48v29.53H195Z"/><path class="cls-3" d="M209.41,169.48h13.31v2.35H206.8V142.3h2.61Z"/><path class="cls-3" d="M231.52,171.83h-2.61V142.3h2.61Z"/><path class="cls-3" d="M264,144.91,255.38,168h-4l-8.6-23.11-.63,26.92h-2.6l.88-29.53h3.81l9.18,24.12,9.14-24.12h3.81l.89,29.53h-2.61Z"/><path class="cls-3" d="M277.8,171.83h-2.62V142.3h2.62Z"/><path class="cls-3" d="M292.2,144.65h-9.09V142.3h20.8v2.35h-9.09v27.18H292.2Z"/><path class="cls-3" d="M309,142.3h16.64v2.35h-14V155.6h13V158h-13v11.53h14.05v2.35H309Z"/><path class="cls-3" d="M342.51,142.3c7.18,0,9.22,3.72,9.22,8.73V163.1c0,5-2,8.73-9.22,8.73h-9.76V142.3Zm-7.15,27.18h7.19c5,0,6.56-2,6.56-6.25V150.9c0-4.21-1.6-6.25-6.56-6.25h-7.19Z"/><path class="cls-3" d="M367.58,169.2a29.26,29.26,0,0,0,6.39.8c4.49,0,6.44-.89,6.44-4.4v-2.84c0-2.84-1.82-4.17-5-4.17h-5.94v-2.31h5.68c3.28,0,4.75-1.55,4.75-4v-3.15c0-3-1.47-4-5.33-4a37.68,37.68,0,0,0-6.44.67l-.35-2.22a34.28,34.28,0,0,1,6.7-.76c5.73,0,8,2.13,8,6.17V152c0,2.75-.8,4.31-3.55,5.37a4.85,4.85,0,0,1,4.08,5.19v3.2c0,4.71-3,6.53-9.1,6.53a26.89,26.89,0,0,1-6.7-.89Z"/><path class="cls-3" d="M400.3,142.3c7.19,0,9.23,3.73,9.23,8.74v12.08c0,5-2,8.74-9.23,8.74h-9.77V142.3Zm-7.15,27.21h7.19c5,0,6.57-2,6.57-6.26V150.91c0-4.22-1.6-6.26-6.57-6.26h-7.19Z"/></svg>